<svg xmlns="http://www.w3.org/2000/svg" viewBox="0 0 254.1 103.17"><defs><style>.cls-1{fill:#e30613;}</style></defs><title>Asset 2</title><g id="Layer_2" data-name="Layer 2"><g id="Laag_1" data-name="Laag 1"><path class="cls-1" d="M153.58,30.28c.24.2.49.44.77.64A14.44,14.44,0,0,1,159.77,39a8.48,8.48,0,0,1,.27,1,8,8,0,0,0,4.31,5.68,23,23,0,0,0,7.13,2.52,85.38,85.38,0,0,0,14.71,1.29c6.13.14,12.24-.39,18.37-.54,1.05,0,2.11,0,3.16,0a6.15,6.15,0,0,1,1.05.13.71.71,0,0,1,.33,1.28,7.82,7.82,0,0,1-1.33,1,30.37,30.37,0,0,1-3,1.59,38,38,0,0,1-9.48,2.78c-6.54,1-13.06,2.1-19.58,3.17a11.46,11.46,0,0,1-4.77-.11,49.21,49.21,0,0,0-9.22-1c-6-.3-12-.5-17.93-.94a89.32,89.32,0,0,1-17.47-2.85,34.91,34.91,0,0,1-6.68-2.57A13.42,13.42,0,0,1,116.25,49a6.33,6.33,0,0,1-2-4.54c0-.63,0-1.27,0-1.9,0-9.16-.07-18.31,0-27.47a7.94,7.94,0,0,0-3.56-7A26.75,26.75,0,0,0,105,5a89.84,89.84,0,0,0-12.28-3.8,17.16,17.16,0,0,1-3-.92c.07-.44.42-.19.62-.24a2.72,2.72,0,0,1,.64,0c11.19.14,22.39.3,33.59.4,4.72,0,9.44,0,14.15-.07a43.81,43.81,0,0,1,8,.4A13.61,13.61,0,0,1,156.8,8.36,19.56,19.56,0,0,1,158.75,19a19.8,19.8,0,0,1-.63,4,13,13,0,0,1-3.58,6.11A2.47,2.47,0,0,0,153.58,30.28Zm-18.83,7.23v-.06c-2.18,0-4.36,0-6.54,0-.9,0-1.11.21-1.12,1.13,0,1.9,0,3.8,0,5.69a6,6,0,0,0,2.48,4.89,17.31,17.31,0,0,0,3.82,2.2,6.37,6.37,0,0,0,3.07.56c4.49-.26,9-.49,13.47-.72a7.29,7.29,0,0,0,2.27-.42c.56-.22.7-.73.25-1.14-.62-.57-1.29-1.08-1.94-1.61a8.46,8.46,0,0,1-3.39-5.4c0-.21-.12-.4-.17-.61a5.24,5.24,0,0,0-4.21-4.21,9.76,9.76,0,0,0-2.07-.3C138.68,37.48,136.71,37.51,134.75,37.51ZM134.17,13h0c-2,0-4.07,0-6.11,0-.79,0-1,.21-1,1,0,3.23,0,6.46,0,9.69,0,1.06.19,1.22,1.26,1.22,3.79,0,7.58,0,11.37,0a9.48,9.48,0,0,0,3.28-.69,4.38,4.38,0,0,0,2.91-3.58,10.7,10.7,0,0,0,0-3.57,4.05,4.05,0,0,0-3.36-3.59A15.56,15.56,0,0,0,139,13C137.4,13.05,135.79,13,134.17,13Z"/><path class="cls-1" d="M237.39,33.64a.66.66,0,0,1,.6.5c.19.82.42,1.63.59,2.46a65,65,0,0,1,1.56,17,10.3,10.3,0,0,1-.41,2.92,7.35,7.35,0,0,1-.32.77.67.67,0,0,1-1.08.15,5.89,5.89,0,0,1-.93-1.13c-.59-1-1.14-2.1-1.66-3.18-1.37-2.85-2.66-5.74-4.08-8.57a58.48,58.48,0,0,0-21.18-23.84,48,48,0,0,0-18.8-7.09,35.7,35.7,0,0,0-7.16-.42c-.91,0-1.15.25-1.16,1.13,0,3.1,0,6.19,0,9.29,0,.91.18,1.06,1.16,1.08,1.48,0,3,0,4.44,0,3.94,0,7.88,0,11.82,0a21.05,21.05,0,0,1,8,1.45,9.26,9.26,0,0,1,1.16.51c1,.55,1.08.92.48,2a2.87,2.87,0,0,0,.42,3.5A8.35,8.35,0,0,0,213,33.87c1.15.7,2.3,1.38,3.44,2.06.38.23.7.49.56,1v0a7.57,7.57,0,0,0-5.4-1.24c-2,.17-4,.51-6.08.71-2.73.28-5.46.55-8.19.72-4.08.26-8.16.47-12.25.45a4.44,4.44,0,0,0-.63,0c-.47,0-.64.47-.38.93A6.23,6.23,0,0,0,186.72,41a17.63,17.63,0,0,0,5.38,1.77,46.93,46.93,0,0,0,10.52.65A95.39,95.39,0,0,0,215,42.05a7.17,7.17,0,0,1,4.11.59,14.31,14.31,0,0,1,4.17,2.83,27.11,27.11,0,0,1,4.47,5.6,63.91,63.91,0,0,1,6,13.47c1.75,5.21,2.93,10.57,4.22,15.91.68,2.8,1.39,5.6,2.14,8.38.29,1.08.72,2.13,1.11,3.18a2.78,2.78,0,0,0,.82,1.21.83.83,0,0,0,1.14-.07,5.38,5.38,0,0,0,1.16-2.46c.48-1.91.95-3.83,1.28-5.76q1.75-10.2,2.7-20.51c.79-8.35,1.05-16.72,1.2-25.1A83,83,0,0,1,250.34,28a16.27,16.27,0,0,1,1.1-4.06,3.77,3.77,0,0,1,1.23-1.69.73.73,0,0,1,1.07.26,3.8,3.8,0,0,1,.31,1,8.11,8.11,0,0,1-.19,2.73A104.54,104.54,0,0,0,252,41c-.51,7.59-1,15.17-1.82,22.73q-1.33,12.39-3.19,24.71c-.51,3.41-1,6.82-1.76,10.18-.16.69-.35,1.37-.57,2A8.16,8.16,0,0,1,244,102c-.85,1.5-1.93,1.51-2.84,0a9.45,9.45,0,0,1-.88-1.91,32.6,32.6,0,0,1-1-3.24c-1-4.17-1.91-8.36-2.9-12.54a110.35,110.35,0,0,0-3.77-13,37.22,37.22,0,0,0-3.08-6.47,13,13,0,0,0-2.83-3.39,4.33,4.33,0,0,0-5.95-.16l-2.55,1.89a1.77,1.77,0,0,1-1.59.22,11.84,11.84,0,0,1-5.5-3A6.36,6.36,0,0,1,210,59c-1.21-2.35-.92-2.22.87-3.27,2.43-1.43,4.84-2.88,7.26-4.31l.92-.53a4.57,4.57,0,0,1,4.45,0A10.37,10.37,0,0,1,226,52.76c.65.64,1.32,1.26,2,1.86.3-.15.34-.35.25-.54A23.63,23.63,0,0,0,224,47.82,17.69,17.69,0,0,0,221.94,46a8.43,8.43,0,0,0-6.77-1.63c-3.41.53-6.81,1.1-10.23,1.49a105.49,105.49,0,0,1-15.39.71,60.69,60.69,0,0,1-10.07-1,22.78,22.78,0,0,1-4.65-1.37,9.34,9.34,0,0,1-2.83-1.8,4.76,4.76,0,0,1-1.59-3.34c0-.64,0-1.27,0-1.9q0-15.21,0-30.42c0-.64,0-1.27,0-1.9a3.61,3.61,0,0,1,3.32-3.5,9.48,9.48,0,0,1,3.36.12,90.35,90.35,0,0,1,28.78,11.18A75.91,75.91,0,0,1,228,32.93c1.71,2.33,3.3,4.74,4.94,7.11.56.81,1.11,1.63,1.69,2.43a9.21,9.21,0,0,0,1,1.11c1,1,1.77.76,2.14-.54a10.09,10.09,0,0,0,.31-2.51,39.15,39.15,0,0,0-.63-6.92Z"/><path class="cls-1" d="M163.62,60.6a20.72,20.72,0,0,1-4.77.81c-2.51.37-5,.7-7.53,1a5,5,0,0,1-2.3-.11,27.93,27.93,0,0,0-5.81-1c-2.24-.26-4.49-.34-6.74-.55-3.64-.35-7.28-.74-10.92-1.1-3.43-.33-6.84-.8-10.24-1.39A125.62,125.62,0,0,1,93.89,52.8a37.23,37.23,0,0,1-6.31-2.92,15.89,15.89,0,0,1-4.38-3.61c-.21-.25-.41-.63-.84-.43s-.33.59-.37.92A4.77,4.77,0,0,0,83.4,50.6a12.74,12.74,0,0,0,3.54,2.64,39.82,39.82,0,0,0,6.2,2.64A130.3,130.3,0,0,0,109.27,60c4.75,1,9.55,1.72,14.32,2.59a37.81,37.81,0,0,1,5.34,1.21,2,2,0,0,1,1.42,1c-.38.36-.89.23-1.33.32s-1,.17-1.46.23c-2.65.31-5.31.6-8,.9-.49,0-1,.07-1.47.09a1.38,1.38,0,0,1-1-.3,14.67,14.67,0,0,0-6.35-2.67c-4.52-1-9.06-2-13.6-3-5.7-1.22-11.41-2.44-17-4.21a43.68,43.68,0,0,1-7.62-3.07,15.48,15.48,0,0,1-3-2A7,7,0,0,1,67.89,49a4,4,0,0,1-.24-3.47c.3-.71.62-1.42,1-2.1,1.79-3.36,3.57-6.72,5.4-10a2.37,2.37,0,0,0,0-2.55q-4.45-8.26-8.82-16.59a13.49,13.49,0,0,0-4.77-5A32.41,32.41,0,0,0,55,6.5,69.72,69.72,0,0,0,40.5,2.22a41.87,41.87,0,0,0-7.65-.68,1.07,1.07,0,0,1,1-.58c2.3-.28,4.6-.6,6.91-.8A29.52,29.52,0,0,1,50,.83,166.37,166.37,0,0,1,66.28,5.11a52.09,52.09,0,0,1,6.25,2.54,24.59,24.59,0,0,1,4,2.37,11.1,11.1,0,0,1,3.61,4.34c.49,1.09,1,2.18,1.52,3.25.17.38.4.73.58,1.05a.78.78,0,0,0,.73-.48c.69-1.46,1.41-2.91,2.08-4.38a5,5,0,0,0-1.16-6,14.54,14.54,0,0,0-4-2.74A52.79,52.79,0,0,0,70.6,1.62C69.07,1.17,67.53.74,65.93.28c.37-.35.72-.23,1-.23,1.83,0,3.67,0,5.49,0a40.26,40.26,0,0,1,9.85.9A53.47,53.47,0,0,1,93,4.25,33.63,33.63,0,0,1,96.32,6a11,11,0,0,1,2,1.51c1.85,1.71,2.51,3.65,1.16,6.27C99,14.85,98.39,15.9,97.82,17c-2.41,4.46-4.8,8.93-7.24,13.37a2.36,2.36,0,0,0,0,2.54c2.1,3.82,4.14,7.68,6.18,11.54a12.56,12.56,0,0,0,3.74,4.23,32.18,32.18,0,0,0,7.27,3.83,78.35,78.35,0,0,0,15.86,4.24c4.1.69,8.23,1.13,12.35,1.57,2.1.22,4.21.35,6.32.45,4.29.2,8.58.32,12.87.52,2.11.1,4.22.27,6.32.44A3.46,3.46,0,0,1,163.62,60.6Z"/><path class="cls-1" d="M0,41.64a14.94,14.94,0,0,0,4.4,3.2,7,7,0,0,0,1.18.46A1.55,1.55,0,0,0,7.7,43.4a10.79,10.79,0,0,0-.63-1.78A43.19,43.19,0,0,1,4.66,34,16.59,16.59,0,0,1,5,26.66a22.39,22.39,0,0,1,4.85-9,19.57,19.57,0,0,1,10.22-6,10,10,0,0,1,3.78-.11,3.83,3.83,0,0,1,3.58,4c0,.56,0,1.13,0,1.69,0,6.9.05,13.8,0,20.71a9.79,9.79,0,0,0,2.51,6.74A25.62,25.62,0,0,0,37,50.24,69.83,69.83,0,0,0,47.82,55c1.51.54,3,1,4.52,1.55.47-.44.1-.72,0-1a.92.92,0,0,1,.36-1.11A4.49,4.49,0,0,1,54,53.79a28,28,0,0,1,7.73-1,6,6,0,0,1,1.63.39c3.16,1,6.21,2.23,9.4,3.11,6.11,1.7,12.31,3,18.52,4.18,5.58,1.1,11.2,2,16.74,3.39a15.4,15.4,0,0,1,4.36,1.53c.54.31.52.83,0,1.14a4.29,4.29,0,0,1-1.78.61c-3.3.27-6.59.57-9.88.86l-12,1.08c-2,.17-3.93.36-5.89.5-4.92.35-9.83.65-14.75,1-5.2.39-10.4.66-15.61.73s-10.14,0-15.22-.09a11.13,11.13,0,0,1,3-.58c7-.54,14-1.12,21-2.2,2-.31,4-.79,6-1.25a6.43,6.43,0,0,0,2.32-1,.92.92,0,0,0,.08-1.58A7.82,7.82,0,0,0,67,63.37c-2.35-.74-4.7-1.46-7.08-2.11-7-1.91-13.94-3.9-20.74-6.42a60.31,60.31,0,0,1-15.46-8.13A34.9,34.9,0,0,1,19,42.5,17,17,0,0,1,14.2,30.66c0-1.05-.07-2.11-.14-3.16a5.73,5.73,0,0,0-.66-2.43,1.82,1.82,0,0,0-2.68-.81A5.5,5.5,0,0,0,9,25.81,10.19,10.19,0,0,0,7,33a17.37,17.37,0,0,0,2.88,8.29,42.43,42.43,0,0,0,6.4,7.56c.81.79,1.62,1.57,2.4,2.39a5.68,5.68,0,0,1,.72,1A.58.58,0,0,1,19,53a5.2,5.2,0,0,1-1.25,0,20.65,20.65,0,0,1-4.62-1.44A36.69,36.69,0,0,1,1.47,43.73,3.76,3.76,0,0,1,.13,41.65Z"/><path class="cls-1" d="M237.42,33.61c.06-.38-.27-.76,0-1.14a1.17,1.17,0,0,1-.06,1.16Z"/><path class="cls-1" d="M218.25,37.4A1.35,1.35,0,0,0,217,37v0l1.15.44Z"/><path class="cls-1" d="M.13,41.65,0,41.76c.16.05.17,0,0-.12Z"/><path class="cls-1" d="M218.17,37.37l.14-.07c-.14-.09-.17-.06-.06.09Z"/></g></g></svg>